<svg width="40" height="40" viewBox="0 0 40 40" fill="none" xmlns="http://www.w3.org/2000/svg">
<path d="M20 30C25.5228 30 30 25.5228 30 20C30 14.4772 25.5228 10 20 10C14.4772 10 10 14.4772 10 20C10 25.5228 14.4772 30 20 30Z" fill="#D80027"/>
<path d="M15.4727 16.0862L16.3359 18.7424H19.1289L16.8711 20.387L17.7344 23.0432L15.4727 21.4026L13.2109 23.0432L14.0781 20.387L11.8164 18.7424H14.6094L15.4727 16.0862Z" fill="#FFDA44"/>
<path d="M21.8555 25.4883L21.1953 24.6758L20.2188 25.0547L20.7852 24.1758L20.125 23.3594L21.1367 23.6289L21.707 22.75L21.7617 23.7969L22.7773 24.0664L21.7969 24.4414L21.8555 25.4883Z" fill="#FFDA44"/>
<path d="M23.168 23.1055L23.4805 22.1055L22.625 21.5L23.6719 21.4844L23.9805 20.4844L24.3203 21.4766L25.3672 21.4648L24.5273 22.0898L24.8633 23.082L24.0078 22.4766L23.168 23.1055Z" fill="#FFDA44"/>
<path d="M24.937 17.3397L24.4761 18.2811L25.2261 19.0116L24.1909 18.8632L23.73 19.8007L23.5503 18.7694L22.5112 18.621L23.4409 18.1327L23.2612 17.0975L24.0112 17.828L24.937 17.3397Z" fill="#FFDA44"/>
<path d="M21.8833 14.4883L21.8052 15.5313L22.7778 15.9258L21.7583 16.1758L21.6841 17.2227L21.1333 16.332L20.1138 16.582L20.7896 15.7812L20.2349 14.8945L21.2075 15.2891L21.8833 14.4883Z" fill="#FFDA44"/>
</svg>
