<svg width="40" height="40" viewBox="0 0 40 40" fill="none" xmlns="http://www.w3.org/2000/svg">
<path d="M20 30C25.5228 30 30 25.5228 30 20C30 14.4772 25.5228 10 20 10C14.4772 10 10 14.4772 10 20C10 25.5228 14.4772 30 20 30Z" fill="#0052B4"/>
<path d="M20.087 14L20.4107 14.9964H21.4584L20.6108 15.6123L20.9346 16.6087L20.087 15.9929L19.2393 16.6087L19.5631 15.6123L18.7155 14.9964H19.7632L20.087 14ZM15.7828 15.7828L16.7164 16.2584L17.4572 15.5177L17.2932 16.5524L18.2268 17.0281L17.192 17.192L17.0281 18.2268L16.5524 17.2933L15.5177 17.4572L16.2585 16.7164L15.7828 15.7828ZM14 20.087L14.9964 19.7632V18.7155L15.6122 19.5631L16.6087 19.2393L15.9928 20.087L16.6087 20.9346L15.6122 20.6108L14.9964 21.4584V20.4107L14 20.087ZM15.7828 24.3911L16.2584 23.4575L15.5177 22.7167L16.5525 22.8807L17.028 21.9471L17.192 22.9819L18.2268 23.1458L17.2933 23.6215L17.4572 24.6563L16.7164 23.9154L15.7828 24.3911ZM20.087 26.1739L19.7631 25.1775H18.7155L19.5631 24.5616L19.2393 23.5653L20.087 24.1811L20.9346 23.5653L20.6108 24.5616L21.4584 25.1775H20.4107L20.087 26.1739ZM24.3911 24.3911L23.4575 23.9155L22.7167 24.6563L22.8806 23.6214L21.9471 23.1458L22.9819 22.9819L23.1458 21.9471L23.6214 22.8807L24.6562 22.7167L23.9154 23.4576L24.3911 24.3911ZM26.1739 20.087L25.1774 20.4107V21.4584L24.5616 20.6108L23.5652 20.9346L24.1811 20.087L23.5652 19.2393L24.5616 19.5631L25.1774 18.7155V19.7632L26.1739 20.087ZM24.3911 15.7828L23.9154 16.7164L24.6563 17.4572L23.6214 17.2932L23.1458 18.2268L22.9819 17.192L21.9471 17.028L22.8806 16.5524L22.7167 15.5177L23.4576 16.2585L24.3911 15.7828Z" fill="#FFDA44"/>
</svg>
