<svg width="40" height="40" viewBox="0 0 40 40" fill="none" xmlns="http://www.w3.org/2000/svg">
<path d="M20 30C25.5228 30 30 25.5228 30 20C30 14.4772 25.5228 10 20 10C14.4772 10 10 14.4772 10 20C10 25.5228 14.4772 30 20 30Z" fill="#F0F0F0"/>
<path d="M12.0672 13.9119C11.2817 14.9339 10.6894 16.1118 10.3445 17.3914H15.5467L12.0672 13.9119Z" fill="#0052B4"/>
<path d="M29.6556 17.3915C29.3107 16.1119 28.7183 14.9339 27.9329 13.9119L24.4534 17.3915H29.6556Z" fill="#0052B4"/>
<path d="M10.3445 22.6088C10.6894 23.8884 11.2817 25.0664 12.0672 26.0883L15.5466 22.6088H10.3445Z" fill="#0052B4"/>
<path d="M26.0882 12.0673C25.0662 11.2818 23.8883 10.6895 22.6086 10.3445V15.5468L26.0882 12.0673Z" fill="#0052B4"/>
<path d="M13.9119 27.9328C14.9339 28.7183 16.1118 29.3106 17.3914 29.6556V24.4534L13.9119 27.9328Z" fill="#0052B4"/>
<path d="M17.3914 10.3445C16.1117 10.6895 14.9338 11.2818 13.9119 12.0672L17.3914 15.5467V10.3445Z" fill="#0052B4"/>
<path d="M22.6086 29.6556C23.8883 29.3106 25.0662 28.7183 26.0881 27.9329L22.6086 24.4534V29.6556Z" fill="#0052B4"/>
<path d="M24.4534 22.6088L27.9329 26.0884C28.7183 25.0664 29.3107 23.8884 29.6556 22.6088H24.4534Z" fill="#0052B4"/>
<path d="M29.9154 18.6957H21.3044H21.3044V10.0846C20.8774 10.0291 20.4421 10 20 10C19.5579 10 19.1226 10.0291 18.6957 10.0846V18.6956V18.6956H10.0846C10.0291 19.1226 10 19.5579 10 20C10 20.4421 10.0291 20.8774 10.0846 21.3043H18.6956H18.6956V29.9154C19.1226 29.9709 19.5579 30 20 30C20.4421 30 20.8774 29.971 21.3043 29.9154V21.3044V21.3044H29.9154C29.9709 20.8774 30 20.4421 30 20C30 19.5579 29.9709 19.1226 29.9154 18.6957Z" fill="#D80027"/>
<path d="M22.6086 22.6088L27.071 27.0711C27.2762 26.866 27.472 26.6515 27.6588 26.4292L23.8384 22.6088H22.6086V22.6088Z" fill="#D80027"/>
<path d="M17.3913 22.6088H17.3913L12.929 27.0711C13.1341 27.2764 13.3486 27.4721 13.5709 27.6589L17.3913 23.8385V22.6088Z" fill="#D80027"/>
<path d="M17.3912 17.3914V17.3913L12.9289 12.929C12.7236 13.1341 12.5279 13.3486 12.3411 13.5709L16.1615 17.3914H17.3912V17.3914Z" fill="#D80027"/>
<path d="M22.6086 17.3913L27.071 12.9289C26.8659 12.7237 26.6514 12.5279 26.429 12.3411L22.6086 16.1616V17.3913Z" fill="#D80027"/>
</svg>
