<svg width="40" height="40" viewBox="0 0 40 40" fill="none" xmlns="http://www.w3.org/2000/svg">
<path d="M20 30C25.5228 30 30 25.5228 30 20C30 14.4772 25.5228 10 20 10C14.4772 10 10 14.4772 10 20C10 25.5228 14.4772 30 20 30Z" fill="#82C3D2"/>
<path fill-rule="evenodd" clip-rule="evenodd" d="M16.5501 20.1088H14.3479C14.3479 20.8892 15.0276 21.5218 15.808 21.5218H15.7609C15.7609 22.3022 16.3936 22.9349 17.174 22.9349C17.174 23.7153 17.8066 24.3479 18.587 24.3479H21.4131C22.1936 24.3479 22.8262 23.7153 22.8262 22.9349C23.6066 22.9349 24.2392 22.3022 24.2392 21.5218H24.1922C24.9725 21.5218 25.6523 20.8892 25.6523 20.1088H23.4502C22.7904 21.338 21.4928 22.1738 20.0001 22.1738C18.5074 22.1738 17.2099 21.338 16.5501 20.1088Z" fill="#FFDA44"/>
<path d="M22.989 18.2608L21.7677 18.8353L22.418 20.0181L21.0918 19.7644L20.9238 21.1041L20.0001 20.1188L19.0763 21.1041L18.9083 19.7644L17.5822 20.0181L18.2325 18.8353L17.0112 18.2608L18.2325 17.6864L17.5822 16.5036L18.9083 16.7573L19.0764 15.4176L20.0001 16.403L20.9238 15.4176L21.0918 16.7573L22.4181 16.5036L21.7677 17.6864L22.989 18.2608Z" fill="#FFDA44"/>
</svg>
