<svg width="40" height="40" viewBox="0 0 40 40" fill="none" xmlns="http://www.w3.org/2000/svg">
<path d="M20 30C25.5228 30 30 25.5228 30 20C30 14.4772 25.5228 10 20 10C14.4772 10 10 14.4772 10 20C10 25.5228 14.4772 30 20 30Z" fill="#D80027"/>
<path d="M19.5904 18.1713L20.4109 19.302L21.7397 18.8711L20.9179 20.0008L21.7383 21.1314L20.41 20.6989L19.5882 21.8286L19.5891 20.4317L18.2607 19.9992L19.5896 19.5684L19.5904 18.1713Z" fill="#F0F0F0"/>
<path d="M17.3513 22.8261C15.7905 22.8261 14.5252 21.5608 14.5252 20C14.5252 18.4392 15.7905 17.1739 17.3513 17.1739C17.838 17.1739 18.2959 17.297 18.6956 17.5136C18.0685 16.9002 17.2108 16.5217 16.2644 16.5217C14.3434 16.5217 12.7861 18.079 12.7861 20C12.7861 21.9209 14.3434 23.4782 16.2644 23.4782C17.2109 23.4782 18.0685 23.0997 18.6956 22.4863C18.2959 22.703 17.838 22.8261 17.3513 22.8261Z" fill="#F0F0F0"/>
</svg>
