<svg width="40" height="40" viewBox="0 0 40 40" fill="none" xmlns="http://www.w3.org/2000/svg">
<rect width="40" height="40" fill="white"/>
<path d="M19.9994 30.0001C25.5219 30.0001 29.9987 25.523 29.9987 20.0002C29.9987 14.4774 25.5219 10.0002 19.9994 10.0002C14.4769 10.0002 10 14.4774 10 20.0002C10 25.523 14.4769 30.0001 19.9994 30.0001Z" fill="#F0F0F0"/>
<path d="M19.5659 19.9999H30C30 19.0973 29.8797 18.2229 29.6555 17.3912H19.5659V19.9999ZM19.5659 14.7825H28.5323C27.9209 13.7853 27.1401 12.9025 26.2251 12.1738H19.5659V14.7825ZM20.0006 29.9998C22.3539 29.9998 24.517 29.1863 26.2251 27.8259H13.7762C15.4842 29.1863 17.6473 29.9998 20.0006 29.9998ZM11.4689 25.2172H28.5323C29.0297 24.4059 29.4079 23.5274 29.6555 22.6085H10.3457C10.5933 23.5274 10.9716 24.4059 11.4689 25.2172Z" fill="#D80027"/>
<path d="M14.6319 11.5616H15.5431L14.6955 12.1774L15.0193 13.1739L14.1717 12.5581L13.3242 13.1739L13.6038 12.3131C12.8562 12.9359 12.2029 13.6641 11.6644 14.4747H11.9564L11.4169 14.8666C11.3327 15.0071 11.2521 15.1495 11.1749 15.2939L11.4326 16.0869L10.9519 15.7376C10.8319 15.9917 10.7228 16.2506 10.6249 16.5139L10.9087 17.3877H11.9564L11.1088 18.0035L11.4326 18.9999L10.585 18.3841L10.0773 18.753C10.0258 19.1667 10 19.5831 10 19.9999H19.9994V10C18.024 10 16.1826 10.573 14.6319 11.5616ZM15.0193 18.9999L14.1717 18.3841L13.3242 18.9999L13.6479 18.0035L12.8003 17.3877H13.848L14.1717 16.3912L14.4955 17.3877H15.5431L14.6955 18.0035L15.0193 18.9999ZM14.6955 15.0905L15.0193 16.0869L14.1717 15.4711L13.3242 16.0869L13.6479 15.0905L12.8003 14.4747H13.848L14.1717 13.4782L14.4955 14.4747H15.5431L14.6955 15.0905ZM18.606 18.9999L17.7585 18.3841L16.9109 18.9999L17.2347 18.0035L16.3871 17.3877H17.4347L17.7585 16.3912L18.0822 17.3877H19.1299L18.2823 18.0035L18.606 18.9999ZM18.2823 15.0905L18.606 16.0869L17.7585 15.4711L16.9109 16.0869L17.2347 15.0905L16.3871 14.4747H17.4347L17.7585 13.4782L18.0822 14.4747H19.1299L18.2823 15.0905ZM18.2823 12.1774L18.606 13.1739L17.7585 12.5581L16.9109 13.1739L17.2347 12.1774L16.3871 11.5616H17.4347L17.7585 10.5652L18.0822 11.5616H19.1299L18.2823 12.1774Z" fill="#0052B4"/>
</svg>
